<?xml version="1.0" encoding="utf-8"?>
<!-- Generator: Adobe Illustrator 15.0.0, SVG Export Plug-In . SVG Version: 6.00 Build 0)  -->
<!DOCTYPE svg PUBLIC "-//W3C//DTD SVG 1.0//EN" "http://www.w3.org/TR/2001/REC-SVG-20010904/DTD/svg10.dtd">
<svg version="1.0" id="Layer_1" xmlns="http://www.w3.org/2000/svg" xmlns:xlink="http://www.w3.org/1999/xlink" x="0px" y="0px"
	 width="200px" height="200px" viewBox="0 0 200 200" enable-background="new 0 0 200 200" xml:space="preserve">
<g id="layer2" transform="translate(-40.130056,-521.19909)" inkscape:label="knife" inkscape:groupmode="layer">
	<path id="path4860" sodipodi:nodetypes="cc" fill="none" stroke="#000000" stroke-linejoin="round" d="M145.299,636.256
		l-14.429,1.525"/>
	<path id="path4878" sodipodi:nodetypes="cc" fill="none" stroke="#000000" stroke-linejoin="round" d="M149.16,707.268
		c-5.979,2.105-11.604,1.628-17.069,0"/>
	<path id="path4880" sodipodi:nodetypes="cc" fill="none" stroke="#000000" stroke-linejoin="round" d="M149.084,709.744
		c-8.205,2.364-12.208,0.9-16.829,0"/>
	
		<path id="path4856" sodipodi:nodetypes="csccsccccccscccccccccccccccccccccccccccccc" fill="none" stroke="#000000" stroke-linejoin="round" d="
		M139.609,525.665c-3.142,6.438-5.662,18.782-6.03,30.51c-0.738,23.503-0.786,52.598-0.786,81.291 M149.385,588.517
		c-2.43-0.473-6.287-2.536-6.801-7.424c-1.539-14.741-2.034-35.323-3.103-55.414 M144.865,586.08l0.434,50.176
		c1.51-0.206,3.067-0.253,4.415-1.021 M131.004,647.986c-0.051-5.194,1.53-11.634-2.628-13.04
		c-0.002-11.312-0.202-29.459,0.784-78.512c0.325-15.848,4.997-25.881,10.321-30.754c4.165,20.49,7.141,41.964,9.903,62.838
		l0.116,14.011c-2.47-0.602-4.712-0.55,0.024,2.678l0.023,2.873c-4.867-1.008-2.205,1.051,0.024,2.936l0.023,2.713
		c-4.197-0.879-2.59,0.819,0.024,2.967l0.021,2.521c-2.388-0.217-4.351-0.203,0.027,3.254l0.022,2.843
		c-5.015-1.249-2.241,1.399,0.022,2.616l0.023,2.679c-5.659-0.988-2.013,1.548,0.028,3.477l-0.638,13.911L131.004,647.986z
		 M149.256,652.598c0.971,18.006,0.898,36.134-0.056,54.623c-0.686,0.84-1.155,1.77-0.002,2.614l-0.006,4.916
		c-7.234,2.508-10.553,2.683-17.04,0.254l-0.042-5.042c0.805-0.714,0.696-2.151-0.02-2.694c-1.36-18.064-1.979-36.122-0.464-54.671
		H149.256z M155.008,647.986c1.591,1.937,1.113,3.354,0,4.611h-30.011c-1.192-1.732-0.836-3.212,0-4.611H155.008z"/>
</g>
</svg>
